<svg width="48" height="48" viewBox="0 0 48 48" fill="none" xmlns="http://www.w3.org/2000/svg">
<circle cx="24" cy="24" r="24" fill="#E97171"/>
<path d="M6.2 24.76H12.04V23.416H6.2V24.76ZM18.2904 22.392L20.7224 19.112V17.8H14.0024V19.192H18.9784L16.3864 22.696L16.9784 23.608H17.3624C18.7064 23.608 19.7144 24.344 19.7144 25.688C19.7144 27.016 18.7064 27.752 17.3624 27.752C16.1464 27.752 15.2664 27.24 14.9304 26.2L13.6824 26.936C14.2584 28.44 15.7144 29.208 17.3624 29.208C19.3784 29.208 21.2024 27.96 21.2024 25.688C21.2024 23.832 19.9064 22.696 18.2904 22.392ZM26.8369 29.208C29.6209 29.208 31.1569 26.856 31.1569 23.4C31.1569 19.944 29.6209 17.592 26.8369 17.592C24.0689 17.592 22.5169 19.944 22.5169 23.4C22.5169 26.856 24.0689 29.208 26.8369 29.208ZM26.8369 27.752C25.0289 27.752 24.0049 26.184 24.0049 23.4C24.0049 20.616 25.0289 19.032 26.8369 19.032C28.6449 19.032 29.6849 20.616 29.6849 23.4C29.6849 26.184 28.6449 27.752 26.8369 27.752ZM34.9705 22.552C36.4585 22.552 37.4985 21.448 37.4985 20.072C37.4985 18.696 36.4265 17.592 34.9705 17.592C33.5145 17.592 32.4425 18.712 32.4425 20.072C32.4425 21.448 33.5145 22.552 34.9705 22.552ZM34.9705 21.384C34.2185 21.384 33.6905 20.808 33.6905 20.072C33.6905 19.352 34.2185 18.776 34.9705 18.776C35.7385 18.776 36.2505 19.352 36.2505 20.072C36.2505 20.792 35.7385 21.384 34.9705 21.384ZM33.1945 27.416L33.9625 27.864L41.4185 19.528L40.6345 19.096L33.1945 27.416ZM39.8025 29.192C41.2585 29.192 42.3305 28.088 42.3305 26.712C42.3305 25.336 41.2585 24.232 39.8025 24.232C38.3465 24.232 37.2745 25.336 37.2745 26.712C37.2745 28.088 38.3465 29.192 39.8025 29.192ZM39.8025 28.008C39.0345 28.008 38.5225 27.432 38.5225 26.712C38.5225 25.992 39.0345 25.416 39.8025 25.416C40.5545 25.416 41.0825 25.992 41.0825 26.712C41.0825 27.432 40.5545 28.008 39.8025 28.008Z" fill="white"/>
</svg>
