<svg width="48" height="48" viewBox="0 0 48 48" fill="none" xmlns="http://www.w3.org/2000/svg">
<circle cx="24" cy="24" r="24" fill="#E97171"/>
<path d="M6.2 24.76H12.04V23.416H6.2V24.76ZM17.5544 22.168H15.9224L16.1144 19.192H20.8984V17.8H14.7704L14.3544 23.608H17.5224C18.8504 23.608 19.8584 24.344 19.8584 25.688C19.8584 27.016 18.8504 27.752 17.4904 27.752C16.2744 27.752 15.3624 27.192 15.0584 26.088L13.7944 26.808C14.3384 28.408 15.8424 29.208 17.4904 29.208C19.5064 29.208 21.3304 27.96 21.3304 25.688C21.3304 23.4 19.5544 22.168 17.5544 22.168ZM26.8213 29.208C29.6053 29.208 31.1413 26.856 31.1413 23.4C31.1413 19.944 29.6053 17.592 26.8213 17.592C24.0533 17.592 22.5013 19.944 22.5013 23.4C22.5013 26.856 24.0533 29.208 26.8213 29.208ZM26.8213 27.752C25.0133 27.752 23.9893 26.184 23.9893 23.4C23.9893 20.616 25.0133 19.032 26.8213 19.032C28.6293 19.032 29.6693 20.616 29.6693 23.4C29.6693 26.184 28.6293 27.752 26.8213 27.752ZM34.9549 22.552C36.4429 22.552 37.4829 21.448 37.4829 20.072C37.4829 18.696 36.4109 17.592 34.9549 17.592C33.4989 17.592 32.4269 18.712 32.4269 20.072C32.4269 21.448 33.4989 22.552 34.9549 22.552ZM34.9549 21.384C34.2029 21.384 33.6749 20.808 33.6749 20.072C33.6749 19.352 34.2029 18.776 34.9549 18.776C35.7229 18.776 36.2349 19.352 36.2349 20.072C36.2349 20.792 35.7229 21.384 34.9549 21.384ZM33.1789 27.416L33.9469 27.864L41.4029 19.528L40.6189 19.096L33.1789 27.416ZM39.7869 29.192C41.2429 29.192 42.3149 28.088 42.3149 26.712C42.3149 25.336 41.2429 24.232 39.7869 24.232C38.3309 24.232 37.2589 25.336 37.2589 26.712C37.2589 28.088 38.3309 29.192 39.7869 29.192ZM39.7869 28.008C39.0189 28.008 38.5069 27.432 38.5069 26.712C38.5069 25.992 39.0189 25.416 39.7869 25.416C40.5389 25.416 41.0669 25.992 41.0669 26.712C41.0669 27.432 40.5389 28.008 39.7869 28.008Z" fill="white"/>
</svg>
