<svg width="48" height="48" viewBox="0 0 48 48" fill="none" xmlns="http://www.w3.org/2000/svg">
<circle cx="24" cy="24" r="24" fill="#2EC1AC"/>
<path d="M16.16 17.8V26.152L10.4 17.8H9.2V29H10.688V20.632L16.448 29H17.648V17.8H16.16ZM20.8758 25.64H27.5798C27.6118 25.432 27.6278 25.224 27.6278 25.016C27.6278 22.776 26.0598 20.792 23.6438 20.792C21.1478 20.792 19.4518 22.632 19.4518 25C19.4518 27.4 21.1638 29.208 23.7398 29.208C25.3398 29.208 26.5558 28.488 27.2598 27.4L26.0758 26.728C25.6758 27.384 24.8758 27.896 23.7718 27.896C22.2838 27.896 21.1478 27.08 20.8758 25.64ZM23.6438 22.104C24.8438 22.104 25.9798 22.84 26.2198 24.424H20.8758C21.0998 23.032 22.1398 22.104 23.6438 22.104ZM38.3394 21L36.5794 27.096L34.6914 21H33.3474L31.4594 27.08L29.6994 21H28.2434L30.7234 29H32.1474L34.0194 23.08L35.8914 29H37.3154L39.7954 21H38.3394Z" fill="white"/>
</svg>
